<?xml version="1.0" encoding="UTF-8"?>
<svg version="1.1" xmlns="http://www.w3.org/2000/svg" width="300" height="300">
<path d="M0 0 C99 0 198 0 300 0 C300 99 300 198 300 300 C201 300 102 300 0 300 C0 201 0 102 0 0 Z " fill="#FEFEFE" transform="translate(0,0)"/>
<path d="M0 0 C0.96550781 0.00515625 1.93101562 0.0103125 2.92578125 0.015625 C15.1673171 0.48970938 32.09868793 5.09868793 41 14 C41.1875 16.4375 41.1875 16.4375 41 19 C40.34 19.66 39.68 20.32 39 21 C34.58520392 20.69256295 31.60677088 19.41884081 27.875 17.125 C18.6001375 11.87886668 8.41131295 10.61127462 -2 9 C-2 15.93 -2 22.86 -2 30 C0.31 30 2.62 30 5 30 C9.78329567 32.43854289 12.70128911 35.13734236 15 40 C15.76615253 45.24579945 15.67832164 49.53482526 13.4375 54.375 C10.6219485 57.40713238 7.77799731 60.22489108 4 62 C2.35 62 0.7 62 -1 62 C-1 65.63 -1 69.26 -1 73 C1.32998047 72.94779297 1.32998047 72.94779297 3.70703125 72.89453125 C5.74217671 72.8663956 7.77733383 72.8390952 9.8125 72.8125 C10.83666016 72.78736328 11.86082031 72.76222656 12.91601562 72.73632812 C13.89892578 72.72666016 14.88183594 72.71699219 15.89453125 72.70703125 C16.80050049 72.6913208 17.70646973 72.67561035 18.63989258 72.65942383 C21 73 21 73 22.80737305 74.35620117 C24.98070501 77.35170662 24.0408294 80.86714435 23.8125 84.40625 C23.78091149 87.01716734 23.78091149 87.01716734 25.27734375 88.8515625 C27.14948357 90.34165593 27.14948357 90.34165593 30.5625 89.875 C34.25442394 89.34366067 34.25442394 89.34366067 36 86 C36.16691643 83.32051847 36.16691643 83.32051847 36 80.4375 C35.875 77.49609375 35.875 77.49609375 36 75 C38 73 38 73 41.34814453 72.77294922 C42.77640633 72.77326625 44.20469212 72.78458639 45.6328125 72.8046875 C46.76056595 72.80893234 46.76056595 72.80893234 47.91110229 72.81326294 C50.31589578 72.82447126 52.72031881 72.84957648 55.125 72.875 C56.75390088 72.88502898 58.38280758 72.89415497 60.01171875 72.90234375 C64.00795556 72.92441265 68.00391494 72.95894649 72 73 C71.566875 72.11957031 71.13375 71.23914063 70.6875 70.33203125 C70.130625 69.17058594 69.57375 68.00914062 69 66.8125 C68.443125 65.66394531 67.88625 64.51539062 67.3125 63.33203125 C66.07462218 60.18944261 65.52896159 58.31493281 66 55 C68 53 68 53 70.625 52.875 C71.40875 52.91625 72.1925 52.9575 73 53 C81.73918739 69.71475646 88.90753409 84.42995662 82.9375 103.625 C78.72856056 115.31347153 72.78721785 124.68828369 64.65625 133.921875 C55.60788934 144.24628652 50.90730825 152.95035734 51.76220703 166.85107422 C52.28913641 171.61291447 53.73668941 176.11981688 55.10546875 180.6953125 C56.19199232 184.70928168 56.41168318 187.88316818 56 192 C55 193 55 193 52.625 193.375 C50 193 50 193 48.50390625 191.0703125 C41.24953327 176.2600861 40.33607068 160.54643107 45 145 C29.82 145 14.64 145 -1 145 C-1 144.34 -1 143.68 -1 143 C-1.66 143 -2.32 143 -3 143 C-3.04125 143.78375 -3.0825 144.5675 -3.125 145.375 C-5.43311279 154.93718158 -11.95551897 162.9013345 -20.23046875 167.984375 C-29.10959764 173 -29.10959764 173 -33 173 C-32.38125 173.86625 -31.7625 174.7325 -31.125 175.625 C-27.68701659 181.08532659 -26.50232913 185.53027863 -27 192 C-29 194 -29 194 -31.375 194.125 C-35.49741647 192.35825009 -36.34967011 188.99182359 -38 185 C-38.30164063 184.31164062 -38.60328125 183.62328125 -38.9140625 182.9140625 C-39.62626648 181.28331506 -40.31558217 179.6426028 -41 178 C-45.46046604 178.42480629 -49.68077696 178.87069873 -54 180.0625 C-58.54612039 181.10851 -63.04041044 181.32588651 -67.6875 181.4375 C-68.41259766 181.47174072 -69.13769531 181.50598145 -69.88476562 181.54125977 C-73.84343158 181.57352162 -76.26699763 181.18664219 -79.39453125 178.66015625 C-84.55004765 173.39642811 -84.37130581 169.02128424 -84.56640625 162.07226562 C-84.55326119 157.56406218 -84.55326119 157.56406218 -87 154 C-87.19843213 152.04875069 -87.39516364 150.09729195 -87.578125 148.14453125 C-88.0372632 145.81057875 -88.80787813 144.46215073 -90.125 142.5 C-92.56435522 137.94653692 -92.04155294 135.94737649 -91 131 C-92.051875 130.9175 -93.10375 130.835 -94.1875 130.75 C-98.34583134 129.9319676 -100.03734506 128.96265494 -103 126 C-105.54144375 121.72522133 -105.67662691 117.86068721 -105 113 C-103.93080686 110.09035914 -102.45032495 107.56156639 -100.8125 104.9375 C-100.40193359 104.24503174 -99.99136719 103.55256348 -99.56835938 102.83911133 C-98.39966347 100.87905321 -97.20659939 98.93689566 -96 97 C-95.17048828 95.66195312 -95.17048828 95.66195312 -94.32421875 94.296875 C-93.88722656 93.60078125 -93.45023438 92.9046875 -93 92.1875 C-90.39507851 88.03590638 -89.88804875 85.48441408 -90.04296875 80.6953125 C-90.56321913 58.11713716 -90.56321913 58.11713716 -86 48 C-85.649375 47.15179688 -85.29875 46.30359375 -84.9375 45.4296875 C-76.09275961 25.83613067 -59.86282024 13.07371855 -40.37890625 5.21484375 C-27.05203278 0.42333202 -14.0575035 -0.31768369 0 0 Z " fill="#0C68CC" transform="translate(148,60)"/>
<path d="M0 0 C2.5 1.3125 2.5 1.3125 4 4 C3.97849525 6.87303401 3.68197976 9.59982493 3.26171875 12.44140625 C2.81081487 15.11765028 2.81081487 15.11765028 4 18 C12.58 18 21.16 18 30 18 C30 21.96 30 25.92 30 30 C28.783125 30.0825 27.56625 30.165 26.3125 30.25 C22.16040797 30.78551717 19.93729911 31.89485523 17 35 C13.76234461 39.80066145 13.08856036 44.35920134 14 50 C16.21950603 54.35680814 18.8545977 57.39707297 23 60 C26.689748 60.80222151 26.689748 60.80222151 30 61 C30.46820014 73.19054431 29.84074537 81.48892546 21.859375 91.00390625 C12.36086126 101.20084011 -2.44827219 104.42385352 -15.61328125 107.23828125 C-18.84612083 107.82304033 -18.84612083 107.82304033 -21 109 C-22.78752492 109.14754174 -24.5816284 109.2211522 -26.375 109.25 C-27.33148438 109.27578125 -28.28796875 109.3015625 -29.2734375 109.328125 C-32.5727339 108.931075 -33.8571375 108.56739186 -36 106 C-36.2432361 103.19981858 -36.28802909 100.77643489 -36.125 98 C-35.69669998 92.21687163 -35.69669998 92.21687163 -38 87 C-37.9765625 84.73828125 -37.9765625 84.73828125 -37.625 82.3125 C-37.45871094 81.10013672 -37.45871094 81.10013672 -37.2890625 79.86328125 C-37.19367188 79.24839844 -37.09828125 78.63351563 -37 78 C-37.99 77.5875 -38.98 77.175 -40 76.75 C-41.6640625 75.6875 -41.6640625 75.6875 -43 74 C-43.54825364 69.95797317 -43.34434166 66.05557951 -43 62 C-44.216875 61.54625 -45.43375 61.0925 -46.6875 60.625 C-47.41453125 60.3465625 -48.1415625 60.068125 -48.890625 59.78125 C-50.55097036 59.16630728 -52.24061562 58.63045492 -53.9375 58.125 C-56 57 -56 57 -56.79614258 54.75 C-57.05628508 51.24072435 -56.17051734 49.8436997 -54.32421875 46.875 C-53.74349609 45.92109375 -53.16277344 44.9671875 -52.56445312 43.984375 C-51.94505859 42.99953125 -51.32566406 42.0146875 -50.6875 41 C-49.48006493 39.04351985 -48.27553132 37.08524543 -47.07421875 35.125 C-46.53369873 34.26132813 -45.99317871 33.39765625 -45.4362793 32.5078125 C-42.69222022 27.71655381 -41.64608431 23.4917166 -41 18 C-40.09644775 17.97494385 -39.19289551 17.9498877 -38.26196289 17.92407227 C-34.9203572 17.82912683 -31.57893748 17.72988379 -28.23754883 17.62768555 C-26.7893576 17.5842837 -25.34111346 17.54261256 -23.89282227 17.50268555 C-21.81510441 17.44510938 -19.73765427 17.38137972 -17.66015625 17.31640625 C-16.40855713 17.27974854 -15.15695801 17.24309082 -13.86743164 17.20532227 C-11.10369496 17.32196094 -11.10369496 17.32196094 -10 16 C-10.00910156 12.69613482 -10.1333688 9.40298073 -10.2578125 6.1015625 C-10 3 -10 3 -8.70703125 1.11328125 C-5.79112753 -0.78839509 -3.36310442 -0.41301282 0 0 Z " fill="#FACA1C" transform="translate(108,124)"/>
<path d="M0 0 C4.95 0 9.9 0 15 0 C15.268125 1.216875 15.53625 2.43375 15.8125 3.6875 C16.98555185 8.29824546 18.24991197 11.74775551 22.23828125 14.6015625 C27.03313987 17.02951071 31.76637339 16.82490274 37 16 C40.48723832 14.44265189 41.45884526 13.13589308 44 10 C44.99 6.7 45.98 3.4 47 0 C56.9 0 66.8 0 77 0 C77 11.81616206 76.89809462 18.05425063 72 28 C71.50371094 29.00804687 71.00742188 30.01609375 70.49609375 31.0546875 C66.4460694 38.5691905 61.38598243 44.18196277 55.40258789 50.16333008 C53.83417599 52.03596391 53.83417599 52.03596391 52.93920898 54.7956543 C51.36050269 58.51584229 50.18247342 60.45733013 47 63 C39.28228212 64.93679902 30.93268482 64.02401029 23.0625 63.6875 C20.83019784 63.63229549 18.59776554 63.58211019 16.36523438 63.53710938 C10.90730905 63.41616364 5.4542555 63.23240075 0 63 C-0.02505615 62.18732666 -0.0501123 61.37465332 -0.07592773 60.53735352 C-0.19149118 56.87889248 -0.31439584 53.22071472 -0.4375 49.5625 C-0.47681641 48.28310547 -0.51613281 47.00371094 -0.55664062 45.68554688 C-0.59853516 44.47060547 -0.64042969 43.25566406 -0.68359375 42.00390625 C-0.72025146 40.87799072 -0.75690918 39.7520752 -0.79467773 38.59204102 C-0.71218045 36.07146559 -0.71218045 36.07146559 -2 35 C-3.58423775 35.03227151 -5.16780178 35.10090039 -6.75 35.1875 C-10.31254192 35.20791571 -11.86593484 35.06703258 -15.125 33.4375 C-17 31 -17 31 -17.5625 27.5 C-17 24 -17 24 -15.6875 21.625 C-11.99328813 19.3912905 -8.62302228 19.37325269 -4.36328125 19.17578125 C-2.04423178 19.26180146 -2.04423178 19.26180146 -1 18 C-0.84417697 16.65984779 -0.74955858 15.31241097 -0.68359375 13.96484375 C-0.64169922 13.15595703 -0.59980469 12.34707031 -0.55664062 11.51367188 C-0.51732422 10.66353516 -0.47800781 9.81339844 -0.4375 8.9375 C-0.39431641 8.08349609 -0.35113281 7.22949219 -0.30664062 6.34960938 C-0.20023298 4.23327963 -0.09958269 2.11666187 0 0 Z " fill="#0BBFA9" transform="translate(147,142)"/>
<path d="M0 0 C0.029729 1.21115479 0.029729 1.21115479 0.06005859 2.44677734 C0.15505899 6.08985875 0.26483912 9.73234686 0.375 13.375 C0.4059375 14.64601563 0.436875 15.91703125 0.46875 17.2265625 C0.50742188 18.43828125 0.54609375 19.65 0.5859375 20.8984375 C0.6173584 22.01911621 0.6487793 23.13979492 0.68115234 24.29443359 C0.73411203 27.14710412 0.73411203 27.14710412 3 29 C5.04707679 29.05275424 5.04707679 29.05275424 7.3125 28.8125 C11.02973646 28.74043726 11.85777082 28.90612874 15.125 31.0625 C17 34 17 34 17.0625 37.625 C15.88280248 41.37227446 15.31093197 42.09821901 12 44 C9.45703125 44.2578125 9.45703125 44.2578125 6.8125 44.125 C5.20933805 44.05458293 3.60469705 44.00584589 2 44 C0.45049732 45.54950268 0.78344807 47.09990594 0.68359375 49.25390625 C0.64169922 50.10791016 0.59980469 50.96191406 0.55664062 51.84179688 C0.51732422 52.73962891 0.47800781 53.63746094 0.4375 54.5625 C0.37272461 55.91504883 0.37272461 55.91504883 0.30664062 57.29492188 C0.20022016 59.52975156 0.09957519 61.76485486 0 64 C-5.94 64 -11.88 64 -18 64 C-18.20625 62.659375 -18.4125 61.31875 -18.625 59.9375 C-19.74289452 54.84665662 -22.04494109 51.38142441 -26 48 C-30.38058099 46.53980634 -34.43159296 46.25936431 -39 47 C-43.21846026 49.3632615 -46.23122432 52.48330495 -48 57 C-48.33 59.31 -48.66 61.62 -49 64 C-56.26 64 -63.52 64 -71 64 C-71.77760456 47.67030433 -65.9376193 35.44417942 -55.8125 22.75 C-41.98364987 7.85012275 -20.03183106 -0.3453764 0 0 Z " fill="#159AF3" transform="translate(138,69)"/>
<path d="M0 0 C3.35694833 2.53636096 4.84664231 3.90458789 5.4375 8.125 C5 11 5 11 3 14 C2.34 14 1.68 14 1 14 C1 14.66 1 15.32 1 16 C1.59167969 16.18175781 2.18335938 16.36351563 2.79296875 16.55078125 C11.99181239 19.47700394 11.99181239 19.47700394 15 22 C15.62673963 26.48237839 14.06627633 29.39518447 12 33.3125 C11.443125 34.38113281 10.88625 35.44976562 10.3125 36.55078125 C9.879375 37.35902344 9.44625 38.16726562 9 39 C9.77730469 38.96648437 10.55460937 38.93296875 11.35546875 38.8984375 C14 39 14 39 16.3125 40.625 C18 43 18 43 18.5625 45.9375 C17.80057749 50.08574477 16.36344489 51.51397551 13 54 C9.9375 54.5 9.9375 54.5 7 54 C5.68 53.01 4.36 52.02 3 51 C0.69 55.29 -1.62 59.58 -4 64 C-9.91785486 63.67720792 -13.60020985 62.34763086 -18.66015625 59.3203125 C-21.00065813 57.99962863 -23.30310866 57.01807622 -25.8125 56.0625 C-40.61734694 50.38265306 -40.61734694 50.38265306 -44 47 C-44.90677185 40.9548543 -42.07388297 36.94016906 -39 32 C-34.125 32.875 -34.125 32.875 -33 34 C-29.51944126 33.82432642 -29.51944126 33.82432642 -26 33 C-23.69836118 29.54754176 -23.65509678 28.05261287 -24 24 C-26.46278801 21.53721199 -28.70676982 21.00228745 -32 20 C-31.38530536 16.28510632 -30.35983048 13.15305938 -28.75 9.75 C-28.35296875 8.87859375 -27.9559375 8.0071875 -27.546875 7.109375 C-26 5 -26 5 -23.66015625 4.05078125 C-20.35142263 3.98761893 -18.57726178 4.85776356 -15.6875 6.4375 C-14.80449219 6.91058594 -13.92148438 7.38367187 -13.01171875 7.87109375 C-12.34785156 8.24363281 -11.68398437 8.61617187 -11 9 C-10.566875 7.88625 -10.13375 6.7725 -9.6875 5.625 C-7.45540052 0.83011964 -5.24655198 -0.87442533 0 0 Z " fill="#FDCC18" transform="translate(244,45)"/>
</svg>
