<?xml version="1.0" encoding="UTF-8"?>
<svg version="1.1" xmlns="http://www.w3.org/2000/svg" width="1024" height="1024">
<path d="M0 0 C337.92 0 675.84 0 1024 0 C1024 337.92 1024 675.84 1024 1024 C686.08 1024 348.16 1024 0 1024 C0 686.08 0 348.16 0 0 Z " fill="#F6F6F6" transform="translate(0,0)"/>
<path d="M0 0 C2.46319653 -0.00464113 4.92639237 -0.00966747 7.3895874 -0.01504517 C14.02216787 -0.02804275 20.65474103 -0.03462742 27.2873311 -0.03905582 C31.44657419 -0.04184288 35.60581504 -0.04608412 39.76505661 -0.05056 C51.33458878 -0.06272828 62.90411919 -0.0730349 74.47365761 -0.07643509 C75.57845295 -0.07676444 75.57845295 -0.07676444 76.70556738 -0.07710044 C77.81261665 -0.07742786 77.81261665 -0.07742786 78.94203055 -0.07776189 C80.43693964 -0.07820532 81.93184873 -0.07865188 83.42675781 -0.07910156 C84.16824386 -0.07932299 84.90972991 -0.07954442 85.67368524 -0.07977256 C97.67614982 -0.08371695 109.67855358 -0.10117104 121.6809947 -0.12446108 C134.07347178 -0.14830952 146.46591847 -0.16064289 158.85841882 -0.16180301 C165.78839412 -0.16271181 172.7182899 -0.16826096 179.64824295 -0.18662262 C186.17378756 -0.20385541 192.6992225 -0.20517683 199.22478485 -0.19648361 C201.59724457 -0.19572245 203.96971292 -0.19993155 206.34215164 -0.20994186 C246.43918185 -0.3689877 285.41221888 6.51331097 319.82568359 28.16113281 C321.43443359 29.16273438 321.43443359 29.16273438 323.07568359 30.18457031 C362.19072875 55.42973976 390.92621766 95.55287906 400.82568359 141.16113281 C404.52376968 159.67655031 405.97476164 177.84779958 405.98681641 196.69360352 C405.99145786 198.40877892 405.99648425 200.12395333 406.00186157 201.83912659 C406.01486265 206.45966315 406.0214066 211.08018528 406.02587223 215.70073724 C406.02882388 218.60194285 406.03293245 221.50314469 406.0373764 224.40434837 C406.05102097 233.52344437 406.0607016 242.64253154 406.06457829 251.76163703 C406.06904721 262.20996723 406.08655367 272.65816585 406.11557889 283.1064561 C406.13735717 291.23445303 406.14729115 299.36241339 406.14861941 307.49043912 C406.14965627 312.32065149 406.15532005 317.15073972 406.17343903 321.98092079 C406.38457473 381.72067985 394.98176231 433.82013538 352.82568359 478.16113281 C351.89755859 479.1859375 351.89755859 479.1859375 350.95068359 480.23144531 C340.43435859 491.45198851 326.89062527 500.19812357 313.82568359 508.16113281 C313.08503662 508.62592041 312.34438965 509.09070801 311.58129883 509.56958008 C305.5089219 513.32205138 299.31838996 516.40732606 292.76318359 519.22363281 C291.25981445 519.87150757 291.25981445 519.87150757 289.72607422 520.5324707 C276.01297352 526.32465866 259.88878361 532.16113281 244.82568359 532.16113281 C244.55626953 533.04800781 244.28685547 533.93488281 244.00927734 534.84863281 C239.26856187 548.11637777 227.72606021 560.70425648 217.67724609 570.34472656 C215.69558414 572.2108507 215.69558414 572.2108507 213.76318359 574.78613281 C211.50514229 577.55405441 208.98906671 579.71160487 206.27490234 582.02441406 C203.90838051 584.08898733 201.61792602 586.22159933 199.33374023 588.37646484 C180.25765065 606.30325497 153.97313506 627.12373858 126.37255859 626.39941406 C122.78659307 626.06391729 120.70465515 625.35463495 117.82568359 623.16113281 C112.59936628 616.32562243 111.33049476 610.65516879 111.82568359 602.16113281 C112.28937832 599.07795807 113.01869321 596.10844643 113.82568359 593.09863281 C114.03990967 592.26227295 114.25413574 591.42591309 114.47485352 590.56420898 C116.68146696 582.20226528 119.39068622 573.99223656 122.23388672 565.8269043 C124.88320169 557.96095595 126.45462494 550.82864497 123.13818359 542.91113281 C122.82494141 542.12222656 122.51169922 541.33332031 122.18896484 540.52050781 C120.41606639 537.45222511 118.53583123 535.45628133 115.82568359 533.16113281 C112.71887827 532.42236777 112.71887827 532.42236777 109.28477478 532.54208374 C108.64124559 532.53584476 107.99771641 532.52960578 107.33468634 532.52317774 C105.18513849 532.50829487 103.03741955 532.52887816 100.88793945 532.54931641 C99.34331113 532.5457738 97.79868656 532.53999458 96.2540741 532.53215027 C92.92820368 532.51997177 89.60284625 532.52343903 86.27699089 532.53898239 C80.99917633 532.56335778 75.72180773 532.55177536 70.44398499 532.53530884 C61.12199709 532.51080011 51.80021195 532.51660664 42.47821045 532.52911377 C28.5019081 532.54765013 14.5256488 532.54256573 0.54937464 532.50907958 C-4.67682556 532.49768393 -9.90269852 532.50225444 -15.12888068 532.51871866 C-35.34116062 532.5711499 -55.13559978 532.42390879 -74.67431641 526.47363281 C-75.5312207 526.2194458 -76.388125 525.96525879 -77.27099609 525.70336914 C-97.58084577 519.49634318 -116.93709658 510.64087997 -134.17431641 498.16113281 C-135.74826172 497.03384766 -135.74826172 497.03384766 -137.35400391 495.88378906 C-170.61304432 471.31159366 -195.0870325 435.25604345 -205.17431641 395.16113281 C-205.45251221 394.06285156 -205.45251221 394.06285156 -205.73632812 392.94238281 C-206.29699462 390.6860062 -206.83476297 388.42558379 -207.36181641 386.16113281 C-207.51682617 385.51080078 -207.67183594 384.86046875 -207.83154297 384.19042969 C-210.99736612 369.85801026 -211.46924643 355.41135934 -211.43310547 340.80004883 C-211.43582356 338.9252916 -211.43938903 337.05053544 -211.44372559 335.17578125 C-211.45275533 330.13645668 -211.44934449 325.09721504 -211.44296741 320.05788922 C-211.43785742 314.75058112 -211.44261269 309.44327949 -211.44573975 304.13597107 C-211.44936527 295.22694644 -211.44461791 286.31795511 -211.43505859 277.40893555 C-211.42418015 267.15299959 -211.42770095 256.89714321 -211.4387114 246.64120919 C-211.44782876 237.78969605 -211.44904782 228.93820668 -211.44383407 220.08669037 C-211.44073827 214.82027284 -211.44023838 209.55389253 -211.44690704 204.28747749 C-211.45274492 199.33213509 -211.44856763 194.37689384 -211.43711853 189.42156219 C-211.43450586 187.61820836 -211.43517776 185.81484579 -211.43964386 184.01149559 C-211.47385478 168.77625958 -210.71348258 153.56569989 -206.98681641 138.72363281 C-206.66209351 137.41434814 -206.66209351 137.41434814 -206.33081055 136.07861328 C-194.14402175 88.72594498 -163.82208564 50.05608327 -122.24365234 24.99755859 C-84.27156194 2.72528446 -42.89265502 0.01909917 0 0 Z " fill="#FBC914" transform="translate(415.17431640625,211.8388671875)"/>
<path d="M0 0 C1.77157001 0.00171515 3.54314256 0.00164132 5.31471252 -0.00012207 C9.01222304 0.00152336 12.70912157 0.02007517 16.40649414 0.05175781 C21.11455038 0.09140332 25.82180632 0.09580123 30.52999783 0.08829498 C34.1840582 0.08520558 37.83794317 0.09741585 41.49196053 0.11442566 C43.22646037 0.12139145 44.96098008 0.12458811 46.6954937 0.12373352 C71.86527639 0.142582 71.86527639 0.142582 81.65234375 8.48828125 C87.47384967 14.6894506 90.73850629 21.28255766 90.78712463 29.76298523 C90.80180786 31.70021957 90.80180786 31.70021957 90.81678772 33.67658997 C90.82269193 35.11080896 90.82850238 36.54502833 90.83422852 37.97924805 C90.84380702 39.48706328 90.85381709 40.99487583 90.86422729 42.50268555 C90.89128539 46.5994675 90.91229006 50.69626099 90.93222928 54.79308295 C90.95408324 59.07324311 90.98147482 63.35336769 91.00828552 67.63349915 C91.05822039 75.74009469 91.10315628 83.84670998 91.14630789 91.95334417 C91.19567347 101.1817985 91.25059412 110.41021713 91.30598748 119.63863695 C91.41981971 138.62364149 91.52665606 157.60867972 91.62890625 176.59375 C92.41539551 176.60833252 93.20188477 176.62291504 94.01220703 176.63793945 C97.59325583 176.71264363 101.17339536 176.80923207 104.75390625 176.90625 C106.61015625 176.94008789 106.61015625 176.94008789 108.50390625 176.97460938 C109.70273437 177.01005859 110.9015625 177.04550781 112.13671875 177.08203125 C113.2364502 177.10821533 114.33618164 177.13439941 115.46923828 177.16137695 C121.13529484 177.93672745 125.46205988 180.78623366 129.62890625 184.59375 C131.578125 187.21484375 131.578125 187.21484375 133.31640625 190.03125 C133.89777344 190.95808594 134.47914063 191.88492188 135.078125 192.83984375 C139.09824468 199.97884721 140.07226471 207.06231637 137.9765625 215.09375 C134.98232081 222.49582388 129.32070949 229.24407789 122.62890625 233.59375 C116.22580723 236.00125127 110.05732514 235.8829835 103.2746582 235.8684082 C102.0444545 235.87351913 100.81425079 235.87863007 99.54676819 235.88389587 C96.18689828 235.89538239 92.8272758 235.89787022 89.46740365 235.89533257 C86.65229753 235.89425849 83.83721384 235.89915775 81.02211255 235.903938 C74.37222771 235.91501622 67.72239936 235.91548112 61.07250977 235.90942383 C54.23960205 235.90339484 47.40690081 235.91567144 40.57402831 235.9369939 C34.68583701 235.95468474 28.79771096 235.96059924 22.9094941 235.95735615 C19.40253501 235.95555387 15.89572297 235.95807213 12.38878822 235.97207069 C8.46915415 235.98713187 4.54977687 235.97761387 0.63012695 235.96606445 C-1.08400391 235.97753006 -1.08400391 235.97753006 -2.83276367 235.98922729 C-16.21772824 235.90256765 -25.46406864 233.18681942 -35.12109375 223.96875 C-39.89468389 217.78735531 -42.25219267 208.84103437 -41.87890625 201.1015625 C-40.30824535 193.34491405 -35.67324579 187.20774878 -29.7890625 182.12890625 C-15.74379068 173.21163351 -10.07945076 176.59375 9.62890625 176.59375 C9.62890625 137.65375 9.62890625 98.71375 9.62890625 58.59375 C1.70890625 58.59375 -6.21109375 58.59375 -14.37109375 58.59375 C-24.67337955 56.20214794 -32.23411234 52.24370949 -38.36328125 43.5 C-41.9111468 36.78930857 -42.20971419 30.01903518 -41.37109375 22.59375 C-38.93171244 14.73110132 -34.10381079 8.65658293 -27.23228455 4.20959473 C-18.32737533 -0.42552057 -9.77932022 -0.10104656 0 0 Z " fill="#0461BB" transform="translate(465.37109375,414.40625)"/>
<path d="M0 0 C8.4216939 6.46183933 13.63681459 15.7308852 16 26 C17.53356631 40.99923482 15.27750405 54.74708262 6 67 C-1.54237018 75.23725266 -10.54472793 80.59992348 -21.78515625 81.203125 C-35.65477126 81.45915949 -48.36304358 79.99593231 -59 70.1484375 C-69.64974125 58.62651917 -73.62506953 45.02338955 -73.33984375 29.62890625 C-72.770807 18.03330683 -66.05820285 8.50454427 -57.75 0.8125 C-39.36686844 -14.05133835 -19.43142457 -12.01570156 0 0 Z " fill="#0461BA" transform="translate(542,304)"/>
<path d="M0 0 C2.84354167 2.84354167 2.25832389 4.73460704 2.27174377 8.72077942 C2.27683061 9.41977047 2.28191745 10.11876152 2.28715843 10.83893412 C2.30188099 13.19321498 2.30235407 15.54728757 2.30297852 17.90161133 C2.31063636 19.58522959 2.31918208 21.26884401 2.32855225 22.95245361 C2.34686824 26.58597552 2.35888341 30.21944558 2.36609077 33.85300636 C2.37756703 39.60743939 2.40302459 45.36175845 2.43040466 51.11613464 C2.47211644 60.23079875 2.50449146 69.34546838 2.53287882 78.46018285 C2.58370404 94.74532804 2.64631643 111.03042357 2.71821922 127.31548899 C2.74301217 133.02539466 2.76250371 138.73528611 2.77760136 144.44522536 C2.78788281 148.01640908 2.80203062 151.58757068 2.81707764 155.15873718 C2.82317942 156.80291909 2.82766844 158.44710799 2.83033562 160.09129906 C2.83421386 162.35504708 2.84273267 164.61868439 2.85523987 166.88240051 C2.85907846 167.58060146 2.86291704 168.27880241 2.86687195 168.99816096 C2.92866847 174.55871968 3.36704407 180.0456462 3.98266506 185.57001781 C3.98838559 186.37191194 3.99410612 187.17380606 4 188 C3.01 188.99 3.01 188.99 2 190 C-1.95239658 182.09520685 -0.13307013 170.25327622 -0.11352539 161.54663086 C-0.11324299 159.78177899 -0.11340229 158.016927 -0.1139679 156.2520752 C-0.1142538 151.48208873 -0.10839046 146.71212761 -0.10139394 141.94214702 C-0.09512602 136.94935279 -0.09455388 131.95655793 -0.09336853 126.96376038 C-0.09026534 117.51861604 -0.08206562 108.07348334 -0.07201904 98.62834412 C-0.06082644 87.87138881 -0.05533953 77.11443294 -0.05032361 66.35747325 C-0.03988214 44.23830902 -0.02230233 22.11915524 0 0 Z " fill="#FBBB03" transform="translate(204,393)"/>
<path d="M0 0 C14.85 0.495 14.85 0.495 30 1 C30 39.94 30 78.88 30 119 C20.76 119.33 11.52 119.66 2 120 C-0.475 120.99 -0.475 120.99 -3 122 C-5.8125 121.625 -5.8125 121.625 -8 121 C-8 120.67 -8 120.34 -8 120 C2 117 2 117 28 117 C28 79.38 28 41.76 28 3 C21.73 3 15.46 3 9 3 C4.545 2.01 4.545 2.01 0 1 C0 0.67 0 0.34 0 0 Z " fill="#D4CF1B" transform="translate(445,472)"/>
<path d="M0 0 C-0.58007812 0.29132812 -1.16015625 0.58265625 -1.7578125 0.8828125 C-8.74528909 4.54950814 -14.5073216 8.64699284 -18 16 C-20.53973932 26.38984267 -18.19828047 33.60343905 -13.5625 42.875 C-11.67966876 45.43565049 -9.53568576 47.09823568 -7 49 C-5.9826127 49.98230498 -4.97403883 50.97469597 -4 52 C-9.21601443 51.08021174 -12.46941568 47.77031536 -16 44 C-20.87526187 36.71561749 -23.42008521 27.71070125 -22 19 C-18.83461117 10.53956737 -13.61285597 4.51078638 -6.0078125 -0.24609375 C-3.58570716 -1.15556132 -2.39822254 -0.85650805 0 0 Z " fill="#0D49CF" transform="translate(446,594)"/>
<path d="M0 0 C5.02705431 1.94114063 6.56012074 5.47612515 8.77838135 10.1776123 C11.51997799 17.63762205 10.59949258 25.95984998 10.3671875 33.765625 C10.33349308 35.65414893 10.30254346 37.54272363 10.27420044 39.43133545 C10.19289854 44.36398766 10.07471423 49.29506756 9.94842529 54.22674561 C9.82583277 59.27443923 9.73869653 64.32273679 9.6484375 69.37109375 C9.46668583 79.24829631 9.24590351 89.12420068 9 99 C8.67 99 8.34 99 8 99 C7.99413376 97.98237579 7.98826752 96.96475159 7.98222351 95.91629028 C7.92484493 86.29489453 7.85200495 76.6737215 7.76428509 67.05255318 C7.71968446 62.10699235 7.68040591 57.16151194 7.65356445 52.21582031 C7.62742829 47.4370049 7.58695379 42.6585007 7.53681374 37.879879 C7.52021448 36.06281297 7.50865721 34.24569319 7.50238609 32.42856216 C8.02635442 16.99934034 8.02635442 16.99934034 1.8125 3.5 C1.214375 3.005 0.61625 2.51 0 2 C0 1.34 0 0.68 0 0 Z " fill="#0158C5" transform="translate(546,424)"/>
<path d="M0 0 C0 0.99 0 1.98 0 3 C-0.99 3.33 -1.98 3.66 -3 4 C-3.33 4.99 -3.66 5.98 -4 7 C-5.98600337 8.3540932 -7.98817543 9.68457624 -10 11 C-12.74809098 13.54701115 -15.12963047 16.15879733 -17.5 19.0625 C-20 22 -20 22 -22.39453125 23.87109375 C-25.065986 26.0539166 -27.0555526 28.29485978 -29.1875 31 C-30.19876953 32.2684375 -30.19876953 32.2684375 -31.23046875 33.5625 C-32.75575337 35.66355431 -33.93532965 37.64134568 -35 40 C-35.66 40 -36.32 40 -37 40 C-36.46272811 35.70182485 -33.80394275 32.77032919 -31.1875 29.5 C-30.69685059 28.88415039 -30.20620117 28.26830078 -29.70068359 27.63378906 C-20.98881758 16.89237581 -11.15325628 8.13108361 0 0 Z " fill="#FABF10" transform="translate(275,249)"/>
<path d="M0 0 C7.00507831 0.43781739 12.23908864 5.96720588 16.75 10.875 C23.94425967 19.4786135 26.35222394 28.72972149 26.25 39.8125 C26.25773438 40.67037109 26.26546875 41.52824219 26.2734375 42.41210938 C26.27085937 43.23130859 26.26828125 44.05050781 26.265625 44.89453125 C26.26336914 45.63550049 26.26111328 46.37646973 26.25878906 47.13989258 C26 49 26 49 24 51 C23.97421875 49.70707031 23.9484375 48.41414063 23.921875 47.08203125 C23.49185822 32.0560577 22.34151216 19.03387621 11 8 C7.43091712 5.18799531 4.6229029 3 0 3 C0 2.01 0 1.02 0 0 Z " fill="#1952C5" transform="translate(532,300)"/>
<path d="M0 0 C0.66 0 1.32 0 2 0 C1.1308297 2.31778746 0.28095796 4.54531995 -1.0234375 6.65625 C-4.73158032 12.86278692 -4.85951638 18.91550138 -4 26 C-2.15381956 32.63440243 1.41836808 38.72077969 7.3203125 42.4765625 C9.52178714 43.71187272 11.73556025 44.8850471 14 46 C14 46.66 14 47.32 14 48 C8.89541633 46.4048176 5.14899937 43.24166352 1 40 C0.30519531 39.54238281 -0.38960938 39.08476562 -1.10546875 38.61328125 C-5.55932735 34.82061403 -6.65690217 28.37551632 -7.4609375 22.80859375 C-7.89174136 14.28483165 -5.47108941 8.18346775 -1 1 C-0.67 0.67 -0.34 0.34 0 0 Z " fill="#E1D514" transform="translate(429,424)"/>
<path d="M0 0 C1.79706004 2.22493147 3.06846959 4.16216483 4.1875 6.8125 C8.70363614 14.75467045 15.4117398 18.08648548 23.89550781 20.55053711 C26.42336013 21.09041833 28.83885001 21.21595528 31.421875 21.31640625 C32.95908203 21.37924805 32.95908203 21.37924805 34.52734375 21.44335938 C35.59082031 21.48267578 36.65429688 21.52199219 37.75 21.5625 C38.82894531 21.60568359 39.90789062 21.64886719 41.01953125 21.69335938 C43.67956428 21.79928989 46.33968812 21.90136421 49 22 C49 22.33 49 22.66 49 23 C44.70856843 23.11742499 40.41755727 23.18765996 36.125 23.25 C34.31902344 23.30027344 34.31902344 23.30027344 32.4765625 23.3515625 C21.74164931 23.46824634 13.61259191 21.3860936 5.6953125 13.93359375 C1.92132195 9.62915752 0 5.72860603 0 0 Z " fill="#0843D9" transform="translate(425,449)"/>
<path d="M0 0 C2.40875078 3.05253102 4.32543798 6.21351847 6.1875 9.625 C6.71730469 10.58664062 7.24710937 11.54828125 7.79296875 12.5390625 C9 15 9 15 9 17 C10.32 17.66 11.64 18.32 13 19 C13 19.66 13 20.32 13 21 C16.3 21.66 19.6 22.32 23 23 C23.33 23.99 23.66 24.98 24 26 C25.99665314 27.68538601 25.99665314 27.68538601 28 29 C20.65455039 28.68742768 15.55509302 25.36249204 10.26953125 20.36328125 C5.08270619 14.64310657 0.60313908 7.84080803 0 0 Z " fill="#0E50C7" transform="translate(472,353)"/>
<path d="M0 0 C5.72170235 0.58634562 10.9972097 1.65561863 16.5 3.3125 C17.2417749 3.53252686 17.9835498 3.75255371 18.74780273 3.97924805 C23.80438546 5.52334054 28.40179061 7.35847546 33 10 C33 10.66 33 11.32 33 12 C30.16481136 11.59497305 28.22573721 11.14834159 25.8125 9.5625 C21.76345409 7.31303005 17.53560641 6.74859523 13 6 C13 5.34 13 4.68 13 4 C11.4840625 4.061875 11.4840625 4.061875 9.9375 4.125 C5.81923948 3.99426157 2.88169467 3.26749214 -1 2 C-0.67 1.34 -0.34 0.68 0 0 Z " fill="#FBC00B" transform="translate(675,217)"/>
<path d="M0 0 C4.10638993 3.75409911 3.92083645 7.39034123 4.1875 12.8125 C4.12674125 17.37808641 3.09902249 21.58905837 2 26 C1.62065902 27.68652948 1.24551513 29.37400961 0.875 31.0625 C0.58333333 32.375 0.29166667 33.6875 0 35 C-0.99 35 -1.98 35 -3 35 C-2.54591412 30.82240986 -1.76023721 27.11816895 -0.4375 23.125 C1.98304898 15.32020547 1.01514695 7.99428222 0 0 Z " fill="#FBC114" transform="translate(539,751)"/>
<path d="M0 0 C1.65 0 3.3 0 5 0 C5.33 0.99 5.66 1.98 6 3 C7.64034193 3.72904086 9.31301918 4.38655243 11 5 C13.8125 6.5 13.8125 6.5 16 8 C16 8.66 16 9.32 16 10 C16.556875 10.185625 17.11375 10.37125 17.6875 10.5625 C22.64400547 13.64357097 25.87909687 19.69774216 28 25 C27.5703125 27.17578125 27.5703125 27.17578125 27 29 C26.36384766 27.71416016 26.36384766 27.71416016 25.71484375 26.40234375 C19.01439532 13.34015088 12.10996956 7.98221912 -1 2 C-0.67 1.34 -0.34 0.68 0 0 Z " fill="#EDDE0D" transform="translate(529,296)"/>
<path d="M0 0 C5.58601136 4.78800974 9.34045022 10.63332561 10.453125 18 C10.69030045 24.64091263 9.66786659 30.36433638 6 36 C5.01 36.495 5.01 36.495 4 37 C4.495 35.80375 4.99 34.6075 5.5 33.375 C7.8949108 26.01672333 8.63550957 18.03523047 5.6875 10.76171875 C4.22012344 8.09857139 2.63618474 5.56078776 1 3 C0.67 2.01 0.34 1.02 0 0 Z " fill="#0C49D2" transform="translate(594,600)"/>
<path d="M0 0 C0.66 0.33 1.32 0.66 2 1 C1.59007812 1.53109375 1.18015625 2.0621875 0.7578125 2.609375 C0.21898437 3.31578125 -0.31984375 4.0221875 -0.875 4.75 C-1.40867187 5.44609375 -1.94234375 6.1421875 -2.4921875 6.859375 C-4.04452498 8.92271294 -4.04452498 8.92271294 -4.97265625 11.13671875 C-6.21472938 13.38945214 -7.27166246 13.95773283 -9.5625 15.0625 C-13.2511691 16.63488132 -13.2511691 16.63488132 -14 20 C-17.63 20.33 -21.26 20.66 -25 21 C-21.83540531 18.62655398 -19.23937493 17.0798089 -15.75 15.375 C-8.80691695 11.6664456 -4.32189171 6.48283756 0 0 Z " fill="#EEDE0C" transform="translate(552,364)"/>
<path d="M0 0 C3.44285535 2.2952369 4.71752729 4.57629093 7 8 C8.64429829 9.68873879 10.31384218 11.35305515 12 13 C13.17620803 14.32492398 14.34224914 15.65891766 15.5 17 C18.21801759 20.14029165 21.01911249 23.10944241 24 26 C21 26 21 26 19.39355469 24.76586914 C18.82540039 24.19473389 18.25724609 23.62359863 17.671875 23.03515625 C17.03967041 22.40359619 16.40746582 21.77203613 15.75610352 21.12133789 C15.09408936 20.44192139 14.4320752 19.76250488 13.75 19.0625 C12.74054321 18.04047485 12.74054321 18.04047485 11.71069336 16.99780273 C7.09766374 12.27279279 2.78051118 7.42804913 -1 2 C-0.67 1.34 -0.34 0.68 0 0 Z " fill="#FBBC08" transform="translate(242,669)"/>
<path d="M0 0 C7.26 0 14.52 0 22 0 C20 2 20 2 16.875 2.125 C15.92625 2.08375 14.9775 2.0425 14 2 C14.33 3.32 14.66 4.64 15 6 C14.01 6.33 13.02 6.66 12 7 C12.33 5.68 12.66 4.36 13 3 C11.68 3.99 10.36 4.98 9 6 C8.34 5.67 7.68 5.34 7 5 C7 4.34 7 3.68 7 3 C4.69 2.34 2.38 1.68 0 1 C0 0.67 0 0.34 0 0 Z " fill="#F6D90A" transform="translate(504,385)"/>
<path d="M0 0 C2.37984901 2.37984901 2.95270406 4.0167531 3.11352539 7.36010742 C3.10567017 8.71906128 3.10567017 8.71906128 3.09765625 10.10546875 C3.09282227 11.57983398 3.09282227 11.57983398 3.08789062 13.08398438 C3.07951172 14.10814453 3.07113281 15.13230469 3.0625 16.1875 C3.05798828 17.22326172 3.05347656 18.25902344 3.04882812 19.32617188 C3.0370401 21.88417266 3.02058515 24.44205733 3 27 C2.34 27 1.68 27 1 27 C0.67 28.32 0.34 29.64 0 31 C0 20.77 0 10.54 0 0 Z " fill="#F9E109" transform="translate(557,326)"/>
<path d="M0 0 C-2.22791998 1.12752649 -4.45725887 2.25208139 -6.6875 3.375 C-7.31333984 3.69210937 -7.93917969 4.00921875 -8.58398438 4.3359375 C-18.48996401 9.3148592 -18.48996401 9.3148592 -24 9 C-21.63448058 6.26097751 -19.45142779 5.06829908 -16 4 C-13.1875 3.875 -13.1875 3.875 -11 4 C-11 3.34 -11 2.68 -11 2 C-10.34 2 -9.68 2 -9 2 C-9 1.34 -9 0.68 -9 0 C-3.375 -1.125 -3.375 -1.125 0 0 Z " fill="#FABF0A" transform="translate(717,726)"/>
<path d="M0 0 C3 3.875 3 3.875 3 5 C7.5838914 6.09315246 12.12511007 6.32282625 16.8125 6.5625 C17.60076172 6.60568359 18.38902344 6.64886719 19.20117188 6.69335938 C21.13394215 6.79878321 23.06695026 6.89983094 25 7 C24.67 7.66 24.34 8.32 24 9 C21.29139335 9.05429278 18.58389099 9.09381211 15.875 9.125 C15.11445312 9.14175781 14.35390625 9.15851563 13.5703125 9.17578125 C9.01698788 9.21503405 5.20689019 8.9736028 1 7 C-0.375 3.875 -0.375 3.875 -1 1 C-0.67 0.67 -0.34 0.34 0 0 Z " fill="#0950CB" transform="translate(500,376)"/>
<path d="M0 0 C1 3 1 3 -0.546875 6.65234375 C-1.27100046 8.08595243 -2.00584874 9.51418329 -2.75 10.9375 C-3.29140625 12.01161133 -3.29140625 12.01161133 -3.84375 13.10742188 C-7.49324741 20.24113149 -7.49324741 20.24113149 -10 23 C-10.66 23 -11.32 23 -12 23 C-12 22.34 -12 21.68 -12 21 C-11.34 21 -10.68 21 -10 21 C-10 20.01 -10 19.02 -10 18 C-10.66 18 -11.32 18 -12 18 C-11.505 16.515 -11.505 16.515 -11 15 C-9.515 15.99 -9.515 15.99 -8 17 C-7.67 15.35 -7.34 13.7 -7 12 C-6.34 12 -5.68 12 -5 12 C-4.9175 11.13375 -4.835 10.2675 -4.75 9.375 C-3.89392254 5.52265142 -2.32631454 3.151781 0 0 Z " fill="#FABF0D" transform="translate(804,633)"/>
<path d="M0 0 C4.07674432 1.55124378 6.38580384 4.45930907 9.0625 7.75 C9.49626953 8.26304687 9.93003906 8.77609375 10.37695312 9.3046875 C13.15115194 12.66581726 15.19248875 16.04125405 17 20 C16.01 20.33 15.02 20.66 14 21 C13.7525 20.195625 13.505 19.39125 13.25 18.5625 C12.27761141 15.828919 12.27761141 15.828919 9.875 15.1875 C9.25625 15.125625 8.6375 15.06375 8 15 C8.33 13.68 8.66 12.36 9 11 C8.34 11 7.68 11 7 11 C5.94410931 9.36816893 4.9563874 7.69207001 4 6 C2.67541292 3.99419671 1.3440093 1.99284138 0 0 Z " fill="#FBBF0C" transform="translate(773,274)"/>
<path d="M0 0 C0.66 0 1.32 0 2 0 C2.22319741 9.07669486 2.43904165 18.16223796 0 27 C-0.66 27.66 -1.32 28.32 -2 29 C-2.1257485 22.58682635 -2.1257485 22.58682635 -1.53125 19.8125 C-0.80192322 15.95135823 -0.63790796 12.10695413 -0.4375 8.1875 C-0.39431641 7.39923828 -0.35113281 6.61097656 -0.30664062 5.79882812 C-0.20121679 3.86605785 -0.10016906 1.93304974 0 0 Z " fill="#FBBE0B" transform="translate(817,571)"/>
<path d="M0 0 C-0.33 0.66 -0.66 1.32 -1 2 C-2.11375 2.37125 -3.2275 2.7425 -4.375 3.125 C-12.33224393 5.93512579 -19.37424622 11.7922717 -25 18 C-22.24220816 9.68330838 -14.48974536 4.94978257 -7.140625 0.8125 C-4.64180017 -0.13595906 -2.65111008 -0.14831385 0 0 Z " fill="#0E48D0" transform="translate(502,297)"/>
<path d="M0 0 C8.02746413 2.94679063 15.86581464 8.03160344 22 14 C22 14.99 22 15.98 22 17 C20.68 16.34 19.36 15.68 18 15 C18 14.34 18 13.68 18 13 C17.34 13 16.68 13 16 13 C16 12.34 16 11.68 16 11 C15.46890625 10.7421875 14.9378125 10.484375 14.390625 10.21875 C11.46166356 8.72555397 8.60618218 7.12816182 5.75 5.5 C4.67234375 4.8915625 3.5946875 4.283125 2.484375 3.65625 C1.25460937 2.83640625 1.25460937 2.83640625 0 2 C0 1.34 0 0.68 0 0 Z " fill="#FBBE0E" transform="translate(731,239)"/>
<path d="M0 0 C0 0.66 0 1.32 0 2 C-2.08201528 2.50546036 -4.16567067 3.00416835 -6.25 3.5 C-7.41015625 3.7784375 -8.5703125 4.056875 -9.765625 4.34375 C-13 5 -13 5 -17 5 C-17.66 6.98 -18.32 8.96 -19 11 C-19.66 11 -20.32 11 -21 11 C-20.52189064 6.69701575 -18.27927918 4.6513321 -15 2 C-10.09656355 -0.00454949 -5.232424 -0.21801767 0 0 Z " fill="#FABF0B" transform="translate(677,739)"/>
<path d="M0 0 C-0.73605469 0.36351562 -1.47210938 0.72703125 -2.23046875 1.1015625 C-11.5795763 5.91814367 -15.70574496 9.94385305 -19 20 C-19.33 20 -19.66 20 -20 20 C-20.64817885 15.67880767 -19.87435449 13.36760369 -17.375 9.9375 C-12.92543867 4.44900808 -7.52410642 -2.15420474 0 0 Z " fill="#0A46D4" transform="translate(446,418)"/>
<path d="M0 0 C7.06903347 0.44181459 12.34863421 6.09076165 16.9375 11 C19.66914178 14.22830392 20.89146333 16.65853308 21 21 C19.45729848 18.95696285 17.93450616 16.90731378 16.45703125 14.81640625 C12.69244687 9.65686898 8.95417701 5.57582875 3 3 C2.01 3 1.02 3 0 3 C0 2.01 0 1.02 0 0 Z " fill="#0F46D3" transform="translate(532,300)"/>
<path d="M0 0 C0.33 0.99 0.66 1.98 1 3 C-0.44140625 5.453125 -0.44140625 5.453125 -2.5625 8.25 C-3.29855469 9.22066406 -4.03460937 10.19132813 -4.79296875 11.19140625 C-7.44644062 14.56812532 -10.06861214 17.8592273 -13 21 C-13.66 21 -14.32 21 -15 21 C-14.505 19.515 -14.505 19.515 -14 18 C-13.34 18 -12.68 18 -12 18 C-11.7215625 17.42765625 -11.443125 16.8553125 -11.15625 16.265625 C-10.01726208 14.03382434 -8.80063617 11.89129126 -7.5 9.75 C-7.0771875 9.04359375 -6.654375 8.3371875 -6.21875 7.609375 C-5.61546875 6.81273437 -5.61546875 6.81273437 -5 6 C-4.34 6 -3.68 6 -3 6 C-2.87625 5.38125 -2.7525 4.7625 -2.625 4.125 C-2 2 -2 2 0 0 Z " fill="#FABC0C" transform="translate(790,659)"/>
<path d="M0 0 C1.65 1.65 3.3 3.3 5 5 C4.67 5.99 4.34 6.98 4 8 C3.34 8 2.68 8 2 8 C2.33 9.65 2.66 11.3 3 13 C2.67 12.34 2.34 11.68 2 11 C0.02 11 -1.96 11 -4 11 C-3.71125 10.29875 -3.4225 9.5975 -3.125 8.875 C-1.97866412 5.94547497 -0.97374346 2.99078347 0 0 Z " fill="#EFD015" transform="translate(603,627)"/>
<path d="M0 0 C5.19625962 1.88646817 6.53547802 6.07421176 8.8046875 10.80078125 C10.44094752 15.18018308 10.46192728 18.38072724 10 23 C9.34 22.67 8.68 22.34 8 22 C7.10657343 18.67780455 6.36455194 15.35922144 5.67578125 11.99023438 C4.65746188 7.46575033 3.6159311 5.12422499 0 2 C0 1.34 0 0.68 0 0 Z " fill="#1050C7" transform="translate(546,424)"/>
<path d="M0 0 C0.33 0.99 0.66 1.98 1 3 C0.01 3.33 -0.98 3.66 -2 4 C-2.84798934 5.79697927 -2.84798934 5.79697927 -3.375 8 C-4.90545209 13.09877887 -7.27697698 17.44727771 -10 22 C-10.76849965 19.74457325 -11.15628879 18.46093824 -10.37915039 16.16894531 C-10.03875732 15.56147461 -9.69836426 14.95400391 -9.34765625 14.328125 C-8.98349609 13.66425781 -8.61933594 13.00039063 -8.24414062 12.31640625 C-7.85419922 11.63449219 -7.46425781 10.95257813 -7.0625 10.25 C-6.67642578 9.55261719 -6.29035156 8.85523438 -5.89257812 8.13671875 C-4.93926363 6.4183988 -3.97104654 4.70836196 -3 3 C-2.34 3 -1.68 3 -1 3 C-0.67 2.01 -0.34 1.02 0 0 Z " fill="#FABF0A" transform="translate(229,303)"/>
<path d="M0 0 C8.79851917 -0.41732107 16.23702211 -0.71248522 24 4 C20.681572 5.659214 17.60735024 4.57259528 14 4 C13.67 3.67 13.34 3.34 13 3 C9.89850354 2.71599669 6.79707354 2.5512529 3.6875 2.37890625 C2.3571875 2.19134766 2.3571875 2.19134766 1 2 C0.67 1.34 0.34 0.68 0 0 Z " fill="#084ACF" transform="translate(507,295)"/>
<path d="M0 0 C0 0.66 0 1.32 0 2 C-5.51278753 4.38390812 -11.08449224 4.60763524 -17 4 C-19.3359375 2.984375 -19.3359375 2.984375 -21 2 C-18.0500839 1.13988779 -15.50320399 0.91700294 -12.4375 1 C-8.11257522 1.11669274 -4.34651723 -0.11747344 0 0 Z " fill="#FBBD0A" transform="translate(556,834)"/>
<path d="M0 0 C0.66 0 1.32 0 2 0 C3.33912585 3.12254943 4.67030658 6.24842358 6 9.375 C6.3815625 10.26445313 6.763125 11.15390625 7.15625 12.0703125 C7.5171875 12.92109375 7.878125 13.771875 8.25 14.6484375 C8.58515625 15.43395996 8.9203125 16.21948242 9.265625 17.02880859 C10 19 10 19 10 21 C9.34 21 8.68 21 8 21 C6.84475582 18.62918558 5.70074792 16.25396043 4.5625 13.875 C4.07426758 12.87726562 4.07426758 12.87726562 3.57617188 11.859375 C1.69415567 7.90132029 0.48773294 4.41020487 0 0 Z " fill="#FABE0D" transform="translate(216,623)"/>
<path d="M0 0 C0.70125 0.721875 1.4025 1.44375 2.125 2.1875 C6.85147186 6.88749302 11.69389867 10.57121141 17.4609375 13.88671875 C17.96882813 14.25410156 18.47671875 14.62148438 19 15 C19 15.66 19 16.32 19 17 C11.0784186 14.20414774 4.6101159 9.03649269 0 2 C0 1.34 0 0.68 0 0 Z " fill="#F5E308" transform="translate(477,367)"/>
<path d="M0 0 C0.66 0 1.32 0 2 0 C2.8723412 2.99480917 3.10829766 5.63575911 3.0625 8.75 C3.05347656 9.54921875 3.04445313 10.3484375 3.03515625 11.171875 C3.01775391 12.07679688 3.01775391 12.07679688 3 13 C3.66 13 4.32 13 5 13 C5.33 14.32 5.66 15.64 6 17 C5.01 17 4.02 17 3 17 C-0.03901852 11.17521449 -0.3540919 6.51791392 0 0 Z " fill="#FBC420" transform="translate(527,814)"/>
<path d="M0 0 C0.66 0 1.32 0 2 0 C1.69540278 3.08750815 1.03765371 3.96651599 -1.328125 6.0703125 C-2.29234375 6.74835937 -3.2565625 7.42640625 -4.25 8.125 C-5.20390625 8.80820312 -6.1578125 9.49140625 -7.140625 10.1953125 C-9.72414749 11.82589637 -12.12916439 12.98368228 -15 14 C-14.25 12.0625 -14.25 12.0625 -13 10 C-10.875 9.25 -10.875 9.25 -9 9 C-9 8.34 -9 7.68 -9 7 C-8.071875 6.566875 -7.14375 6.13375 -6.1875 5.6875 C-3.53220795 4.28175715 -1.8692652 3.28465747 0 1 C0 0.67 0 0.34 0 0 Z " fill="#FBBD0B" transform="translate(596,811)"/>
<path d="M0 0 C0.66 0.33 1.32 0.66 2 1 C0.29779622 2.44475303 -1.41206507 3.8804864 -3.125 5.3125 C-4.07632813 6.11300781 -5.02765625 6.91351562 -6.0078125 7.73828125 C-8.89898751 9.92364722 -11.71334866 11.49321178 -15 13 C-15 11.35 -15 9.7 -15 8 C-14.2575 7.9175 -13.515 7.835 -12.75 7.75 C-9.42226374 6.84243557 -8.37573572 5.44772771 -6 3 C-2.875 1.1875 -2.875 1.1875 0 0 Z " fill="#FABE0F" transform="translate(751,702)"/>
<path d="M0 0 C0 3 0 3 -1.50390625 4.75390625 C-5.8044753 8.53220505 -9.16742488 11.15162544 -15 12 C-18.9375 11.625 -18.9375 11.625 -22 11 C-22 10.67 -22 10.34 -22 10 C-21.35933594 9.89042969 -20.71867188 9.78085937 -20.05859375 9.66796875 C-11.75093995 8.14510524 -5.82785016 6.53425624 0 0 Z " fill="#0945D8" transform="translate(596,638)"/>
<path d="M0 0 C0.66 0 1.32 0 2 0 C2 0.66 2 1.32 2 2 C2.99 2.33 3.98 2.66 5 3 C3.98679687 3.90492188 3.98679687 3.90492188 2.953125 4.828125 C2.06109375 5.62734375 1.1690625 6.4265625 0.25 7.25 C-0.63171875 8.03890625 -1.5134375 8.8278125 -2.421875 9.640625 C-4.67866165 11.70592672 -6.85739926 13.81735064 -9 16 C-7.6302836 12.00499382 -5.74277578 9.19990508 -3 6 C-3.99 5.67 -4.98 5.34 -6 5 C-4.02 5 -2.04 5 0 5 C0 3.35 0 1.7 0 0 Z " fill="#F4DD0B" transform="translate(484,299)"/>
<path d="M0 0 C4.58328022 -0.05802751 9.16646604 -0.09360593 13.75 -0.125 C15.05195312 -0.14175781 16.35390625 -0.15851563 17.6953125 -0.17578125 C18.94570313 -0.18222656 20.19609375 -0.18867188 21.484375 -0.1953125 C22.63647461 -0.20578613 23.78857422 -0.21625977 24.97558594 -0.22705078 C27.89892966 -0.00758762 29.53732509 0.47271878 32 2 C32 2.66 32 3.32 32 4 C30.9378125 3.68289063 29.875625 3.36578125 28.78125 3.0390625 C23.07778552 1.61319638 17.35223946 1.54300687 11.5 1.375 C10.39140625 1.33632813 9.2828125 1.29765625 8.140625 1.2578125 C5.42724203 1.16424757 2.71385339 1.07850517 0 1 C0 0.67 0 0.34 0 0 Z " fill="#0449D2" transform="translate(506,416)"/>
<path d="M0 0 C0.66 0.33 1.32 0.66 2 1 C1.49339844 2.07314453 1.49339844 2.07314453 0.9765625 3.16796875 C-2.40744034 10.72818319 -4.11142786 17.77739216 -5 26 C-5.33 26 -5.66 26 -6 26 C-6.55498446 17.30524348 -5.57248853 10.0055035 -2 2 C-1.34 1.34 -0.68 0.68 0 0 Z " fill="#F6E405" transform="translate(473,316)"/>
<path d="M0 0 C2.45993028 0.2813059 4.91740248 0.57452731 7.375 0.875 C8.42300781 0.99294922 8.42300781 0.99294922 9.4921875 1.11328125 C14.7734375 1.7734375 14.7734375 1.7734375 17 4 C14.89590361 4.02701408 12.79170822 4.04640223 10.6875 4.0625 C9.51574219 4.07410156 8.34398437 4.08570313 7.13671875 4.09765625 C4 4 4 4 1 3 C0.67 2.01 0.34 1.02 0 0 Z " fill="#FBC106" transform="translate(362,739)"/>
<path d="M0 0 C2.26756502 1.92743027 3.28922836 3.55703239 4.6875 6.25 C7.17372347 10.82270121 10.98288401 13.79215738 15 17 C14.67 17.66 14.34 18.32 14 19 C7.89260136 15.047242 3.18946074 10.64470988 0 4 C0 2.68 0 1.36 0 0 Z " fill="#EDE40C" transform="translate(425,629)"/>
<path d="M0 0 C3.22909006 -0.05834353 6.45804338 -0.09371115 9.6875 -0.125 C10.59951172 -0.14175781 11.51152344 -0.15851563 12.45117188 -0.17578125 C17.06848227 -0.20936169 20.81932331 -0.23556185 25 2 C24.67 2.66 24.34 3.32 24 4 C23.45214844 3.855625 22.90429688 3.71125 22.33984375 3.5625 C14.4944582 1.72553168 7.01429447 1.80765693 -1 2 C-0.67 1.34 -0.34 0.68 0 0 Z " fill="#F2E408" transform="translate(503,293)"/>
<path d="M0 0 C2.27177532 1.77791112 2.96272851 2.85430236 3.6875 5.6875 C4.68203589 16.22958043 4.68203589 16.22958043 2 21 C1.66280953 18.43795456 1.33012847 15.87545682 1 13.3125 C0.90460937 12.59126953 0.80921875 11.87003906 0.7109375 11.12695312 C0.23316265 7.39007129 -0.11919794 3.77708469 0 0 Z " fill="#FBBC04" transform="translate(539,751)"/>
<path d="M0 0 C1.32 0.33 2.64 0.66 4 1 C3.34 1.66 2.68 2.32 2 3 C1.01 3 0.02 3 -1 3 C-1.33 3.99 -1.66 4.98 -2 6 C-3.9609375 7.203125 -3.9609375 7.203125 -6.375 8.25 C-7.56222656 8.78367187 -7.56222656 8.78367187 -8.7734375 9.328125 C-11 10 -11 10 -14 9 C-12.23084525 8.01780373 -10.45961431 7.03934641 -8.6875 6.0625 C-7.70136719 5.51722656 -6.71523438 4.97195313 -5.69921875 4.41015625 C-3 3 -3 3 0 2 C0 1.34 0 0.68 0 0 Z " fill="#FBBF09" transform="translate(574,824)"/>
<path d="M0 0 C-2.35418843 2.35418843 -4.25583671 2.99608031 -7.375 4.125 C-8.80972656 4.65480469 -8.80972656 4.65480469 -10.2734375 5.1953125 C-13 6 -13 6 -17 6 C-12.52065561 1.04914568 -6.56253064 -0.4921898 0 0 Z " fill="#FABF0B" transform="translate(327,224)"/>
<path d="M0 0 C0.66 0.33 1.32 0.66 2 1 C1.44570312 1.67546875 0.89140625 2.3509375 0.3203125 3.046875 C-0.40414062 3.93890625 -1.12859375 4.8309375 -1.875 5.75 C-2.59429687 6.63171875 -3.31359375 7.5134375 -4.0546875 8.421875 C-5.68442588 10.58176924 -6.90784005 12.539766 -8 15 C-8.66 15 -9.32 15 -10 15 C-9.41472053 11.07679858 -7.4922901 8.82550072 -5 5.8125 C-4.278125 4.93207031 -3.55625 4.05164063 -2.8125 3.14453125 C-1.90474803 2.07048851 -0.99437957 0.99437957 0 0 Z " fill="#FABC08" transform="translate(248,274)"/>
<path d="M0 0 C0.99 1.051875 0.99 1.051875 2 2.125 C6.4022741 6.5272741 11.35659924 10.34797871 17 13 C17 13.66 17 14.32 17 15 C11.89541633 13.4048176 8.14899937 10.24166352 4 7 C3.25878906 6.52433594 2.51757812 6.04867188 1.75390625 5.55859375 C1.17511719 5.04425781 0.59632813 4.52992188 0 4 C0 2.68 0 1.36 0 0 Z " fill="#F2E408" transform="translate(426,457)"/>
<path d="M0 0 C1.83187434 2.2680349 3.17116732 4.35721875 4.4375 7 C5.97601385 9.95394658 7.53794789 11.79264293 10 14 C9.67 14.99 9.34 15.98 9 17 C0 7.30213904 0 7.30213904 0 0 Z " fill="#124DCC" transform="translate(425,449)"/>
<path d="M0 0 C1.0625 1.875 1.0625 1.875 2 4 C1.67 4.66 1.34 5.32 1 6 C-0.66666667 6.33333333 -2.33333333 6.66666667 -4 7 C-4.33 7.66 -4.66 8.32 -5 9 C-6.98 9 -8.96 9 -11 9 C-10.484375 8.62875 -9.96875 8.2575 -9.4375 7.875 C-6.18438982 5.37260756 -3.09877473 2.68966683 0 0 Z " fill="#ECD514" transform="translate(596,640)"/>
<path d="M0 0 C4.84578496 2.06024697 7.34464826 5.56071226 10 10 C10.875 13.5 10.875 13.5 11 16 C8.58113611 12.78756563 6.1897843 9.55582593 3.8125 6.3125 C3.09707031 5.33925781 2.38164063 4.36601563 1.64453125 3.36328125 C0 1 0 1 0 0 Z " fill="#EAE10F" transform="translate(592,596)"/>
<path d="M0 0 C0.66 0 1.32 0 2 0 C1.67 2.31 1.34 4.62 1 7 C0.01 7.33 -0.98 7.66 -2 8 C-3.20882096 10.00016466 -3.20882096 10.00016466 -4 12 C-3.53680089 7.27536912 -2.90108294 3.82942948 0 0 Z " fill="#0E50C8" transform="translate(475,316)"/>
<path d="M0 0 C-3.02211019 2.60744856 -5.15985424 3.46333045 -9.125 3.8125 C-10.42824219 3.94591797 -10.42824219 3.94591797 -11.7578125 4.08203125 C-14 4 -14 4 -16 2 C-10.61972975 0.80911014 -5.54708616 -0.2919519 0 0 Z " fill="#FAC82A" transform="translate(366,214)"/>
<path d="M0 0 C-1.4160599 0.79275148 -2.83287553 1.58415312 -4.25 2.375 C-5.43335938 3.03628906 -5.43335938 3.03628906 -6.640625 3.7109375 C-8.73914197 4.85747823 -10.8536077 5.94649552 -13 7 C-11.96795898 3.78920572 -10.41251338 2.40059709 -7.625 0.6875 C-3.92624372 -1.03433482 -3.54141957 -1.20907496 0 0 Z " fill="#0949D5" transform="translate(446,594)"/>
<path d="M0 0 C0.66 0.33 1.32 0.66 2 1 C0.78070272 2.30098717 -0.45092452 3.59042437 -1.6875 4.875 C-2.37199219 5.59429688 -3.05648437 6.31359375 -3.76171875 7.0546875 C-6.09591291 9.08335887 -8.08467634 10.02992733 -11 11 C-9.71937515 9.2925002 -8.38232443 7.62626404 -7 6 C-6.34 6 -5.68 6 -5 6 C-4.67 5.01 -4.34 4.02 -4 3 C-1.9375 1.3125 -1.9375 1.3125 0 0 Z " fill="#FBB90C" transform="translate(612,799)"/>
<path d="M0 0 C0.99386719 0.00902344 1.98773437 0.01804687 3.01171875 0.02734375 C4.15060547 0.04474609 4.15060547 0.04474609 5.3125 0.0625 C5.3125 0.3925 5.3125 0.7225 5.3125 1.0625 C4.40757812 1.13597656 4.40757812 1.13597656 3.484375 1.2109375 C2.28554688 1.32308594 2.28554688 1.32308594 1.0625 1.4375 C-0.12085938 1.54191406 -0.12085938 1.54191406 -1.328125 1.6484375 C-3.72041991 1.95240044 -3.72041991 1.95240044 -5.8125 3.125 C-8.38497041 4.4112352 -9.9867139 3.81271836 -12.6875 3.0625 C-8.2862703 0.78600188 -4.96778936 -0.05844458 0 0 Z " fill="#427496" transform="translate(511.6875,293.9375)"/>
<path d="M0 0 C3.81684226 1.55500981 6.19195732 4.03595495 9 7 C8.67 7.99 8.34 8.98 8 10 C6.66070495 8.71451591 5.32871357 7.42141845 4 6.125 C2.88625 5.04605469 2.88625 5.04605469 1.75 3.9453125 C0 2 0 2 0 0 Z " fill="#FBBD0B" transform="translate(762,262)"/>
<path d="M0 0 C-1.09601169 1.00893131 -2.20213918 2.00688225 -3.3125 3 C-4.23482422 3.8353125 -4.23482422 3.8353125 -5.17578125 4.6875 C-7 6 -7 6 -10 6 C-8.20404732 1.26521567 -5.07984355 -1.69328118 0 0 Z " fill="#FBBE09" transform="translate(291,241)"/>
<path d="M0 0 C0.66 0 1.32 0 2 0 C0.31326082 4.49797113 -1.81673892 8.72886302 -4 13 C-4.66 13 -5.32 13 -6 13 C-4.58707905 8.1725201 -2.57025846 4.2837641 0 0 Z " fill="#EFE00B" transform="translate(429,424)"/>
<path d="M0 0 C0.33 0.99 0.66 1.98 1 3 C-1.97 5.97 -4.94 8.94 -8 12 C-8 8.03869629 -6.65122875 7.17085599 -4 4.3125 C-3.2575 3.50425781 -2.515 2.69601562 -1.75 1.86328125 C-1.1725 1.24839844 -0.595 0.63351562 0 0 Z " fill="#FAB802" transform="translate(638,773)"/>
<path d="M0 0 C2.96659857 3.55991828 5.381348 7.65222543 7 12 C6.67 12.66 6.34 13.32 6 14 C2.04319812 9.38373114 0 6.15374666 0 0 Z " fill="#0942DE" transform="translate(472,353)"/>
<path d="M0 0 C3.81287042 1.44626119 5.32707177 3.30194812 7 7 C6.57421875 9.1640625 6.57421875 9.1640625 6 11 C5.17977251 9.92250558 4.36913831 8.83770492 3.5625 7.75 C3.11003906 7.14671875 2.65757812 6.5434375 2.19140625 5.921875 C0.96099003 3.93707244 0.43887332 2.28012345 0 0 Z " fill="#FABD0B" transform="translate(789,295)"/>
<path d="M0 0 C0.66 0 1.32 0 2 0 C1.53199289 4.05606165 1.12046792 7.46588679 -1 11 C-2.60080151 6.99799622 -1.29279692 3.95443764 0 0 Z " fill="#FCC00C" transform="translate(810,614)"/>
<path d="M0 0 C1.32 0.33 2.64 0.66 4 1 C2.71186658 1.83878455 1.41936744 2.67086783 0.125 3.5 C-0.59429688 3.9640625 -1.31359375 4.428125 -2.0546875 4.90625 C-4 6 -4 6 -6 6 C-6 5.34 -6 4.68 -6 4 C-3 2 -3 2 0 2 C0 1.34 0 0.68 0 0 Z " fill="#FBBD0B" transform="translate(726,718)"/>
<path d="M0 0 C1.32 0 2.64 0 4 0 C4 0.66 4 1.32 4 2 C4.928125 2.2165625 4.928125 2.2165625 5.875 2.4375 C8 3 8 3 10 4 C10 4.66 10 5.32 10 6 C5.56909529 4.79157144 3.01887244 3.48331435 0 0 Z " fill="#FBBF07" transform="translate(289,714)"/>
<path d="M0 0 C0.66 0.66 1.32 1.32 2 2 C1 3 1 3 -2.0625 3.0625 C-3.031875 3.041875 -4.00125 3.02125 -5 3 C-5 2.34 -5 1.68 -5 1 C-5.66 0.67 -6.32 0.34 -7 0 C-3.85179059 -1.04940314 -3.00659136 -1.066855 0 0 Z " fill="#1866B1" transform="translate(451,592)"/>
<path d="M0 0 C0.99 0.33 1.98 0.66 3 1 C3 1.66 3 2.32 3 3 C4.32 3.66 5.64 4.32 7 5 C7 5.66 7 6.32 7 7 C7.66 7.33 8.32 7.66 9 8 C6 8 6 8 4.39453125 6.50390625 C3.61142578 5.54291016 3.61142578 5.54291016 2.8125 4.5625 C2.28269531 3.92441406 1.75289063 3.28632813 1.20703125 2.62890625 C0 1 0 1 0 0 Z " fill="#1647C7" transform="translate(478,367)"/>
<path d="M0 0 C-3.41016497 2.86453858 -6.90694544 4.34703566 -11 6 C-11 5.34 -11 4.68 -11 4 C-7.28157456 1.05984965 -4.79828917 -0.56450461 0 0 Z " fill="#F3E307" transform="translate(501,295)"/>
<path d="M0 0 C3.40312738 1.05875074 6.01353231 2.00902154 9 4 C8.67 4.66 8.34 5.32 8 6 C5.36 4.68 2.72 3.36 0 2 C0 1.34 0 0.68 0 0 Z " fill="#FABE05" transform="translate(720,233)"/>
<path d="M0 0 C7.75 0.875 7.75 0.875 10 2 C10 2.66 10 3.32 10 4 C5.78087253 3.5205537 3.20336822 2.83374881 0 0 Z " fill="#FABD0D" transform="translate(709,229)"/>
<path d="M0 0 C1.13643966 3.40931897 0.86747764 4.00335456 -0.4375 7.1875 C-0.86869141 8.26064453 -0.86869141 8.26064453 -1.30859375 9.35546875 C-1.53675781 9.89816406 -1.76492188 10.44085938 -2 11 C-2.33 11 -2.66 11 -3 11 C-3.32613618 6.32538149 -2.70582788 3.83325617 0 0 Z " fill="#0F4DCB" transform="translate(429,427)"/>
<path d="M0 0 C3.80881639 1.44472346 5.29742886 3.32603071 7 7 C6.67 7.99 6.34 8.98 6 10 C3.78286492 6.74820188 1.65167557 3.5786304 0 0 Z " fill="#1248D0" transform="translate(546,424)"/>
<path d="M0 0 C1.73662334 3.22515763 2.8905928 6.51329166 4 10 C3.34 10.66 2.68 11.32 2 12 C0.40861915 7.82262526 -0.21278058 4.46839215 0 0 Z " fill="#E2D815" transform="translate(470,351)"/>
<path d="M0 0 C-0.33 0.99 -0.66 1.98 -1 3 C-2.175625 2.9690625 -2.175625 2.9690625 -3.375 2.9375 C-5.98114961 2.81315937 -5.98114961 2.81315937 -8 4 C-8.66 3.34 -9.32 2.68 -10 2 C-3.375 0 -3.375 0 0 0 Z " fill="#FBC524" transform="translate(339,219)"/>
<path d="M0 0 C3.63 0.66 7.26 1.32 11 2 C11 2.33 11 2.66 11 3 C6.71 3 2.42 3 -2 3 C-1.34 2.01 -0.68 1.02 0 0 Z " fill="#0568B0" transform="translate(451,467)"/>
<path d="M0 0 C-0.66 0.66 -1.32 1.32 -2 2 C-2.33 2.66 -2.66 3.32 -3 4 C-4.32 3.67 -5.64 3.34 -7 3 C-7 2.01 -7 1.02 -7 0 C-3.86650268 -1.04449911 -3.01031744 -0.93423645 0 0 Z " fill="#185FB4" transform="translate(451,416)"/>
<path d="M0 0 C0.66 0.33 1.32 0.66 2 1 C0.68 3.31 -0.64 5.62 -2 8 C-2.66 8 -3.32 8 -4 8 C-2.87548273 5.0280615 -1.77706209 2.66559313 0 0 Z " fill="#FABE08" transform="translate(233,294)"/>
<path d="M0 0 C2.475 0.495 2.475 0.495 5 1 C4.67 2.98 4.34 4.96 4 7 C1.49962266 4.82575883 0.56371414 3.26954202 0 0 Z " fill="#FBBE06" transform="translate(227,647)"/>
<path d="M0 0 C0.33 0 0.66 0 1 0 C1.125 2.875 1.125 2.875 1 6 C0.34 6.66 -0.32 7.32 -1 8 C-1.625 5.125 -1.625 5.125 -2 2 C-1.34 1.34 -0.68 0.68 0 0 Z " fill="#FAFCFD" transform="translate(203,381)"/>
<path d="M0 0 C0.99 0.33 1.98 0.66 3 1 C3 3.64 3 6.28 3 9 C0.87491756 5.81237635 0.4979837 3.73487777 0 0 Z " fill="#FABF0B" transform="translate(807,331)"/>
</svg>
