<?xml version="1.0" encoding="UTF-8"?>
<svg version="1.1" xmlns="http://www.w3.org/2000/svg" width="300" height="300">
<path d="M0 0 C99 0 198 0 300 0 C300 99 300 198 300 300 C201 300 102 300 0 300 C0 201 0 102 0 0 Z " fill="#FEFEFE" transform="translate(0,0)"/>
<path d="M0 0 C1.22798309 -0.00744736 1.22798309 -0.00744736 2.48077393 -0.01504517 C5.18315483 -0.02962033 7.8854769 -0.03646322 10.58789062 -0.04199219 C11.51587967 -0.04481956 12.44386871 -0.04764694 13.39997864 -0.05056 C18.31678552 -0.06553882 23.23356319 -0.07477482 28.15039062 -0.07910156 C33.19920316 -0.08456521 38.24774315 -0.10855228 43.29647064 -0.13707352 C47.20358016 -0.15582089 51.11062582 -0.16091203 55.01777649 -0.16243744 C56.87707499 -0.16544038 58.73637301 -0.17338787 60.59562683 -0.18662262 C79.76004733 -0.31323535 96.1196812 2.05995263 110.56054688 15.94628906 C111.28113281 16.6771875 112.00171875 17.40808594 112.74414062 18.16113281 C113.33066406 18.73734375 113.9171875 19.31355469 114.52148438 19.90722656 C122.00455601 27.84727967 125.95214426 39.27836961 126.05053711 50.05175781 C126.05886063 50.70168198 126.06718414 51.35160614 126.07575989 52.02122498 C126.09967606 54.151257 126.10861262 56.2809811 126.11523438 58.41113281 C126.12422028 59.91219156 126.13334242 61.4132495 126.14259338 62.91430664 C126.15904021 66.05796469 126.1667746 69.20151688 126.16967773 72.34521484 C126.17503263 76.33138128 126.2126094 80.31652039 126.2584219 84.30239868 C126.28849868 87.40496232 126.29540796 90.50728877 126.29640388 93.60998535 C126.30055209 95.07691105 126.31276288 96.54384115 126.33392143 98.01062012 C126.52955869 112.75565386 123.46354945 125.67995742 113.74414062 137.16113281 C113.12152344 137.92941406 112.49890625 138.69769531 111.85742188 139.48925781 C104.12753737 148.14672846 92.25381194 154.66466524 80.56445312 155.51660156 C79.96375 155.72929687 79.36304688 155.94199219 78.74414062 156.16113281 C77.67659951 158.46930256 77.67659951 158.46930256 76.74414062 161.16113281 C71.3992933 168.2223212 64.88887448 173.9844809 57.74414062 179.16113281 C56.81794922 179.845625 56.81794922 179.845625 55.87304688 180.54394531 C51.34023394 183.5379049 47.00102085 183.8492652 41.74414062 183.16113281 C40.12392797 181.54092016 40.5734935 179.76745347 40.55664062 177.53613281 C40.58832756 173.08094984 41.45447044 169.43316529 42.74414062 165.16113281 C42.99558375 161.41040078 42.99558375 161.41040078 42.74414062 158.16113281 C41.13199191 156.5489841 39.38472053 157.02825943 37.15527344 157.01928711 C36.17625061 157.01225266 35.19722778 157.0052182 34.1885376 156.99797058 C33.11891785 156.9938063 32.0492981 156.98964203 30.94726562 156.98535156 C28.68553787 156.96212371 26.42381912 156.93800525 24.16210938 156.91308594 C20.59450526 156.87818599 17.02722546 156.8487585 13.45947266 156.83520508 C-7.87000568 156.73829357 -23.76314829 154.79480396 -39.93164062 139.64160156 C-49.18839353 129.76254594 -54.33680851 117.09472098 -54.41699219 103.60180664 C-54.42659973 102.29307083 -54.43620728 100.98433502 -54.44610596 99.63594055 C-54.45095566 98.21335018 -54.45523407 96.79075776 -54.45898438 95.36816406 C-54.46181175 94.64604925 -54.46463913 93.92393444 -54.46755219 93.17993736 C-54.48251396 89.35587578 -54.49176147 85.53185161 -54.49609375 81.70776367 C-54.50156327 77.78186674 -54.52556745 73.85631927 -54.5540657 69.9305315 C-54.57280793 66.89081362 -54.57790387 63.85117784 -54.57942963 60.81140709 C-54.58243238 59.36549667 -54.59037925 57.91958686 -54.60361481 56.4737339 C-54.7399551 40.43042647 -50.80820714 27.20929831 -39.57617188 15.29394531 C-28.31486452 4.94264259 -15.16443272 0.02213698 0 0 Z " fill="#FAC814" transform="translate(114.255859375,61.8388671875)"/>
<path d="M0 0 C1.26972656 -0.00644531 2.53945312 -0.01289062 3.84765625 -0.01953125 C5.16636719 -0.00019531 6.48507813 0.01914063 7.84375 0.0390625 C9.82181641 0.01005859 9.82181641 0.01005859 11.83984375 -0.01953125 C13.74443359 -0.00986328 13.74443359 -0.00986328 15.6875 0 C16.84443359 0.00563965 18.00136719 0.0112793 19.19335938 0.01708984 C23.49954855 0.90142039 24.87172776 2.01896425 27.34375 5.6640625 C28.00997584 9.19356692 27.92628899 12.63398755 27.83203125 16.21484375 C27.82495651 17.22878708 27.81788177 18.24273041 27.81059265 19.28739929 C27.78266012 22.5178788 27.71992162 25.74660911 27.65625 28.9765625 C27.63116575 31.1698968 27.60835281 33.36325834 27.58789062 35.55664062 C27.53283755 40.92637552 27.44922273 46.29509404 27.34375 51.6640625 C29.33146159 51.60302734 31.31917318 51.54199219 33.30688477 51.48095703 C36.52129113 51.76991841 38.15954541 53.41366989 40.34375 55.6640625 C41.78805855 58.55267959 41.72063506 60.46053951 41.34375 63.6640625 C39.32964352 66.45552991 37.71468686 68.35059001 34.26342773 69.13973999 C31.70489069 69.34306107 29.19159203 69.38321865 26.625 69.36328125 C25.68950317 69.37043655 24.75400635 69.37759186 23.79016113 69.38496399 C21.81666007 69.39273182 19.84307291 69.38774829 17.86962891 69.37084961 C14.85284175 69.35162045 11.84066017 69.39102103 8.82421875 69.43554688 C6.9036431 69.43583724 4.98306322 69.43269711 3.0625 69.42578125 C1.71387878 69.44870491 1.71387878 69.44870491 0.3380127 69.47209167 C-5.71267229 69.35969315 -5.71267229 69.35969315 -8.36450195 67.4046936 C-10.9147196 64.54229915 -11.6483094 62.89434003 -11.78125 59.0390625 C-10.40707731 54.91654444 -9.51130112 53.67190162 -5.65625 51.6640625 C-2.68625 51.6640625 0.28375 51.6640625 3.34375 51.6640625 C3.34375 40.1140625 3.34375 28.5640625 3.34375 16.6640625 C0.04375 16.6640625 -3.25625 16.6640625 -6.65625 16.6640625 C-10.22406839 14.23794599 -11.4026365 12.8814073 -12.28125 8.6640625 C-10.88608635 1.96727699 -6.36571928 0.03103067 0 0 Z " fill="#0762B8" transform="translate(135.65625,121.3359375)"/>
<path d="M0 0 C4.24724158 2.08385261 7.35518872 4.03278309 10 8 C10.57430821 12.81822214 10.58557505 17.43846654 8.875 22 C5.35852553 25.75090611 2.10408081 26.84227417 -2.9375 27.5625 C-7.21703801 27.39821831 -9.58423358 25.56798351 -12.58984375 22.64453125 C-15.22567764 19.57060863 -15.87024456 17.01641763 -16.375 13.0625 C-15.73001536 7.79512543 -13.13053407 4.93391945 -9.125 1.625 C-5.52746905 -0.24571609 -3.98569607 -0.71742529 0 0 Z " fill="#0A63B6" transform="translate(153,86)"/>
</svg>
